<?xml version="1.0" encoding="UTF-8"?>
<svg width="32" height="48" viewBox="0 0 32 48" fill="none" xmlns="http://www.w3.org/2000/svg">
  <filter id="shadow" x="-50%" y="-50%" width="200%" height="200%">
    <feDropShadow dx="0" dy="2" stdDeviation="2" flood-color="#4A433B" flood-opacity="0.3"/>
  </filter>
  
  <!-- Фон маркера -->
  <path d="M16 0C7.164 0 0 7.164 0 16C0 24 16 48 16 48C16 48 32 24 32 16C32 7.164 24.836 0 16 0Z" fill="#FFFBF6"/>
  
  <!-- Градиентная обводка -->
  <path d="M16 0C7.164 0 0 7.164 0 16C0 24 16 48 16 48C16 48 32 24 32 16C32 7.164 24.836 0 16 0ZM16 22C12.686 22 10 19.314 10 16C10 12.686 12.686 10 16 10C19.314 10 22 12.686 22 16C22 19.314 19.314 22 16 22Z" fill="#D4A977" fill-opacity="0.9" filter="url(#shadow)"/>
  
  <!-- Внутренний круг -->
  <circle cx="16" cy="16" r="6" fill="#D4A977"/>
</svg> 