<?xml version="1.0" encoding="UTF-8"?>
<!-- Generated by Pixelmator Pro 3.6.15 -->
<svg 
      xmlns="http://www.w3.org/2000/svg" 
     viewBox="0 0 129 84"
      aria-hidden="true"
    >
      <g id="XMLID271">
        <g id="XMLID270">
            <g id="XMLID942">
                <path id="XMLID975" fill="currentColor" stroke="none" d="M 84.949997 81.809998 L 86.619995 83.059998 L 84.949997 83.059998 L 68.25 83.059998 L 66.580002 83.059998 L 68.25 81.809998 L 68.25 1.660004 L 66.580002 0.410004 L 68.25 0.410004 L 84.949997 0.410004 L 84.949997 81.809998 Z M 97.990005 0.820007 C 102.479996 1.029999 108.740005 1.859985 113.960007 4.369995 C 120.220001 7.5 123.460007 12.299988 123.460007 18.769989 C 123.460007 21.690002 122.729996 24.51001 121.479996 26.700012 C 119.699997 29.730011 116.470001 32.230011 111.770004 34.209991 C 107.589996 36.089996 103.520004 36.920013 101.960007 37.130005 L 98.410004 37.76001 C 99.350006 37.339996 100.080002 36.820007 100.809998 35.98999 C 102.690002 33.589996 103.520004 29.209991 103.520004 20.959991 C 103.520004 16.579987 103.210007 11.980011 102.789993 8.22998 C 102.479996 4.579987 100.919998 2.079987 97.990005 0.820007 Z M 128.889999 62.299988 C 128.889999 65.950012 127.850006 69.399994 126.070007 72.209991 C 120.429993 80.980011 111.979996 82.019989 100.710007 82.119995 C 102.899994 80.869995 103.839996 78.679993 104.669998 75.130005 C 105.190002 72.730011 105.710007 67.51001 105.710007 61.350006 C 105.710007 58.73999 105.610001 54.880005 105.080002 51.230011 C 104.449997 46.850006 103.410004 43.820007 101.949997 42.049988 C 101.110001 41.01001 99.759995 40.170013 98.089996 39.549988 L 104.869995 40.279999 C 109.979996 40.910004 114.059998 41.950012 117.5 43.720001 C 122.300003 46.220001 125.75 49.980011 127.619995 54.98999 C 128.470001 57.290009 128.889999 59.690002 128.889999 62.299988 Z"/>
            </g> 
            <path id="XMLID979" fill="currentColor" stroke="none" d="M 58.610001 2.190002 C 53.259995 0.850006 39 -1.980011 24.389999 4.519989 C 8.690002 11.5 2.300003 24.929993 0.339996 29.619995 C 2.779999 28.529999 6.559998 26.98999 11.370003 25.600006 C 22.849998 22.279999 29.540001 22.899994 35.620003 21.529999 C 42.190002 20.049988 50.800003 15.660004 58.610001 2.190002 Z"/>
            <path id="XMLID941" fill="currentColor" stroke="none" d="M 57.039993 21.73999 C 53.539993 22.610016 44.490005 25.320007 38.860001 33.160004 C 32.809998 41.579987 34.440002 50.700012 35.160004 53.799988 C 36.43 52.540009 38.399994 50.720001 41.009995 48.809998 C 45.649994 45.420013 48.779999 44.480011 50.610001 43.149994 C 52.729996 41.600006 57.070007 39.040009 57.039993 21.73999 Z"/>
        </g>
    </g>
    </svg>
